<svg width="53" height="53" viewBox="0 0 53 53" fill="none" xmlns="http://www.w3.org/2000/svg">
<circle cx="26.5" cy="26.5" r="24" fill="#FCEED1" stroke="#AB5113" stroke-width="5"/>
<path d="M37.3354 38.6901V35.9812C37.3354 34.5443 36.7646 33.1663 35.7486 32.1502C34.7326 31.1342 33.3545 30.5634 31.9176 30.5634H21.0821C19.6452 30.5634 18.2672 31.1342 17.2511 32.1502C16.2351 33.1663 15.6643 34.5443 15.6643 35.9812V38.6901M31.9176 19.7278C31.9176 22.72 29.492 25.1456 26.4999 25.1456C23.5077 25.1456 21.0821 22.72 21.0821 19.7278C21.0821 16.7357 23.5077 14.3101 26.4999 14.3101C29.492 14.3101 31.9176 16.7357 31.9176 19.7278Z" stroke="#AB5113" stroke-width="5" stroke-linecap="round" stroke-linejoin="round"/>
</svg>
